  <svg
    width="19"
    height="33"
    viewBox="0 0 19 33"
    fill="none"
    xmlns="http://www.w3.org/2000/svg"
  >
    <path
      d="M18.3035 14.8306C18.7495 15.2734 19 15.8739 19 16.5C19 17.1261 18.7495 17.7266 18.3035 18.1694L4.03124 32.3372C3.58261 32.7673 2.98174 33.0053 2.35805 32.9999C1.73436 32.9945 1.13774 32.7462 0.69671 32.3084C0.255677 31.8706 0.00550987 31.2784 9.02456e-05 30.6592C-0.00532938 30.0401 0.234432 29.4436 0.667735 28.9983L13.2583 16.5L0.667738 4.0017C0.234436 3.55636 -0.00532564 2.95989 9.41646e-05 2.34077C0.00551396 1.72165 0.255681 1.12941 0.696715 0.691605C1.13775 0.253803 1.73436 0.00547049 2.35805 8.80326e-05C2.98174 -0.00529061 3.58261 0.232712 4.03124 0.662842L18.3035 14.8306Z"
      fill="#697475"
    />
  </svg>