  <svg
    width="19"
    height="33"
    viewBox="0 0 19 33"
    fill="none"
    xmlns="http://www.w3.org/2000/svg"
  >
    <path
      d="M0.696458 18.1694C0.250518 17.7266 1.03449e-06 17.1261 1.0664e-06 16.5C1.09831e-06 15.8739 0.250518 15.2734 0.696458 14.8306L14.9688 0.662841C15.4174 0.232714 16.0183 -0.00529085 16.642 8.91745e-05C17.2656 0.0054692 17.8623 0.253803 18.3033 0.691605C18.7443 1.12941 18.9945 1.72165 18.9999 2.34077C19.0053 2.95989 18.7656 3.55636 18.3323 4.0017L5.74172 16.5L18.3323 28.9983C18.7656 29.4436 19.0053 30.0401 18.9999 30.6592C18.9945 31.2784 18.7443 31.8706 18.3033 32.3084C17.8623 32.7462 17.2656 32.9945 16.642 32.9999C16.0183 33.0053 15.4174 32.7673 14.9688 32.3372L0.696458 18.1694Z"
      fill="#697475"
    />
  </svg>